# xmcd CD database file
#
# Track frame offsets:
#	150
#	26880
#	49850
#	70767
#	88512
#	104507
#	135630
#	163452
#	183195
#	208005
#
# Disc length: 3013 seconds
#
# Revision: 3
# Processed by: cddbd v1.5.1PL0 Copyright (c) Steve Scherf et al.
# Submitted via: CDex 1.51
#
DISCID=8f0bc30a
DTITLE=george lewis - JASS AT OHIO UNION
DYEAR=1954
DGENRE=Jazz
TTITLE0=Over The Waves
TTITLE1=Bugle Boy Blues
TTITLE2=Doctor Jazz
TTITLE3=Red Wing
TTITLE4=Sensation Rag
TTITLE5=Corrine
TTITLE6=Ice Cream
TTITLE7=Chimes Blues
TTITLE8=When The Saints Go Marching-In
TTITLE9=Muskrat Ramble - Finale
EXTD=YEAR: 1954
EXTT0=
EXTT1=
EXTT2=
EXTT3=
EXTT4=
EXTT5=
EXTT6=
EXTT7=
EXTT8=
EXTT9=
PLAYORDER=
